<?xml version="1.0" standalone="no"?>
<!DOCTYPE svg PUBLIC "-//W3C//DTD SVG 20010904//EN"
 "http://www.w3.org/TR/2001/REC-SVG-20010904/DTD/svg10.dtd">
<svg version="1.0" xmlns="http://www.w3.org/2000/svg"
 width="224.000000pt" height="224.000000pt" viewBox="0 0 224.000000 224.000000"
 preserveAspectRatio="xMidYMid meet">
<metadata>
Created by potrace 1.14, written by Peter Selinger 2001-2017
</metadata>
<g transform="translate(0.000000,224.000000) scale(0.100000,-0.100000)"
fill="#000000" stroke="none">
<path d="M985 1865 c-228 -43 -425 -187 -530 -386 -40 -76 -41 -79 -20 -79 8
0 24 19 36 43 127 249 372 401 649 401 129 0 203 -18 328 -80 69 -34 113 -64
168 -116 68 -65 142 -165 164 -223 9 -25 40 -35 40 -14 0 22 -62 127 -110 187
-174 214 -456 318 -725 267z"/>
<path d="M985 1790 c-182 -39 -353 -160 -449 -319 -40 -66 -42 -71 -22 -71 8
0 26 20 40 44 121 206 329 326 566 327 226 0 453 -127 559 -313 18 -32 39 -58
47 -58 22 0 17 14 -35 92 -87 130 -208 224 -349 273 -63 22 -99 28 -197 30
-66 2 -138 0 -160 -5z"/>
<path d="M1187 1642 c-20 -21 -37 -47 -37 -59 0 -11 -7 -26 -15 -33 -8 -7 -12
-17 -9 -22 3 -5 13 -3 23 6 10 9 29 16 42 16 15 0 38 14 59 35 41 42 32 60
-10 20 -17 -16 -30 -24 -30 -19 0 6 12 21 27 34 18 16 23 25 14 28 -7 2 -24
-6 -39 -19 l-27 -24 24 27 c38 43 19 52 -22 10z"/>
<path d="M1055 1660 c3 -5 10 -10 16 -10 5 0 9 5 9 10 0 6 -7 10 -16 10 -8 0
-12 -4 -9 -10z"/>
<path d="M1095 1660 c3 -5 10 -10 16 -10 5 0 9 5 9 10 0 6 -7 10 -16 10 -8 0
-12 -4 -9 -10z"/>
<path d="M1135 1660 c3 -5 10 -10 16 -10 5 0 9 5 9 10 0 6 -7 10 -16 10 -8 0
-12 -4 -9 -10z"/>
<path d="M973 1653 c-19 -7 -16 -33 7 -70 15 -25 27 -33 48 -33 22 0 40 -15
92 -75 59 -70 88 -87 97 -59 2 6 -30 42 -72 79 -51 46 -75 75 -75 90 0 35 -64
79 -97 68z"/>
<path d="M685 1530 c-8 -14 3 -30 21 -30 8 0 13 -4 9 -10 -3 -5 -13 -6 -22 -3
-11 4 -14 3 -9 -5 10 -17 36 -15 43 3 3 9 -3 23 -13 31 -17 14 -17 15 -1 10 9
-3 17 -1 17 4 0 13 -37 13 -45 0z"/>
<path d="M747 1533 c-11 -10 -8 -51 3 -58 6 -4 10 8 10 29 0 37 -2 41 -13 29z"/>
<path d="M770 1505 c0 -35 20 -51 20 -17 1 16 1 16 14 0 20 -26 26 -22 26 17
0 35 -20 51 -20 18 -1 -17 -1 -17 -14 0 -20 25 -26 21 -26 -18z"/>
<path d="M851 1526 c-9 -11 -10 -20 -1 -35 11 -22 44 -28 55 -11 4 6 -5 10
-20 10 -20 0 -26 4 -23 18 3 11 12 16 26 15 14 -2 21 1 17 7 -9 15 -41 12 -54
-4z"/>
<path d="M920 1505 c0 -32 3 -35 28 -34 16 1 20 3 10 6 -21 5 -23 19 -5 26 10
4 10 6 0 6 -19 1 -16 19 5 24 10 3 6 5 -10 6 -25 1 -28 -2 -28 -34z"/>
<path d="M1275 1530 c-3 -5 1 -10 9 -10 20 0 20 -14 1 -30 -13 -11 -13 -15 -3
-21 20 -13 31 -11 25 4 -3 8 -1 20 3 28 5 8 4 19 -2 26 -13 16 -25 17 -33 3z"/>
<path d="M1331 1521 c-14 -26 -4 -51 20 -51 24 0 36 27 22 48 -15 24 -31 25
-42 3z m29 -22 c0 -11 -4 -17 -10 -14 -5 3 -10 13 -10 21 0 8 5 14 10 14 6 0
10 -9 10 -21z"/>
<path d="M1398 1535 c-8 -8 4 -65 13 -65 12 0 12 57 0 64 -4 3 -10 3 -13 1z"/>
<path d="M1442 1532 c-6 -2 -12 -17 -12 -33 0 -22 5 -29 19 -29 11 0 22 4 25
9 9 14 -18 58 -32 53z m18 -42 c0 -5 -4 -10 -10 -10 -5 0 -10 5 -10 10 0 6 5
10 10 10 6 0 10 -4 10 -10z"/>
<path d="M1036 1461 c-36 -37 -41 -61 -11 -61 18 0 73 72 68 88 -7 19 -16 15
-57 -27z"/>
<path d="M305 1085 c0 -111 1 -115 22 -115 19 0 21 4 16 40 -5 37 -4 40 19 40
36 0 48 19 48 75 0 62 -12 75 -64 75 l-41 0 0 -115z m73 36 c-4 -44 -31 -50
-36 -8 -5 39 4 58 23 51 12 -5 15 -17 13 -43z"/>
<path d="M428 1143 c-2 -32 -1 -84 0 -115 3 -49 7 -58 22 -58 16 0 19 9 22 58
2 31 1 83 0 115 -3 48 -7 57 -22 57 -16 0 -19 -9 -22 -57z"/>
<path d="M497 1180 c-4 -17 -1 -19 19 -14 30 8 30 2 0 -104 -26 -92 -25 -96
36 -90 25 2 34 8 36 24 3 18 -1 21 -23 16 -24 -4 -26 -3 -19 24 4 16 10 31 14
34 4 3 10 23 13 45 4 22 10 50 13 63 6 20 3 22 -39 22 -36 0 -46 -4 -50 -20z"/>
<path d="M607 1180 c-4 -17 -1 -19 19 -14 19 5 24 2 24 -13 0 -10 -7 -28 -15
-39 -8 -12 -12 -24 -9 -27 3 -3 -2 -28 -10 -56 -17 -59 -13 -65 46 -59 25 2
34 8 36 24 3 18 -1 21 -24 16 -25 -5 -26 -3 -20 24 4 16 11 31 15 34 5 3 11
23 14 45 3 22 9 50 13 63 6 20 3 22 -39 22 -36 0 -46 -4 -50 -20z"/>
<path d="M716 1088 l2 -113 40 -3 c33 -2 43 1 52 17 10 19 8 21 -25 21 -34 0
-36 2 -33 28 2 21 8 27 26 26 16 0 22 5 22 21 0 16 -6 21 -22 21 -19 -1 -23 4
-23 29 0 27 3 30 31 29 26 -1 31 1 27 17 -4 15 -15 19 -52 19 l-46 0 1 -112z"/>
<path d="M835 1085 c0 -111 1 -115 22 -115 19 0 21 4 16 40 -4 26 -2 40 6 40
6 0 14 -18 17 -40 6 -34 10 -40 30 -40 28 0 28 -2 8 45 -11 27 -12 41 -5 48 6
6 11 35 11 64 0 59 -14 73 -72 73 l-33 0 0 -115z m73 31 c-2 -20 -9 -32 -20
-34 -15 -3 -18 4 -18 36 0 21 3 42 7 45 13 14 34 -17 31 -47z"/>
<path d="M965 1085 c0 -107 1 -116 19 -113 17 3 19 14 20 116 1 106 0 112 -19
112 -19 0 -20 -7 -20 -115z"/>
<path d="M1045 1153 c-4 -27 -9 -66 -11 -88 -2 -22 -6 -53 -9 -68 -4 -25 -2
-28 18 -25 16 2 21 9 19 26 -3 17 2 22 17 22 16 0 21 -6 21 -25 0 -18 5 -25
20 -25 19 0 20 5 16 59 -2 33 -6 64 -9 69 -3 4 -7 29 -9 55 -3 45 -4 47 -34
47 -30 0 -32 -3 -39 -47z m42 -92 c-15 -6 -17 5 -10 40 l7 34 6 -35 c3 -19 1
-37 -3 -39z"/>
<path d="M1198 1143 c-2 -32 -1 -84 0 -115 l4 -58 34 0 c50 0 78 31 70 78 -3
21 -6 57 -6 80 1 56 -13 72 -61 72 l-38 0 -3 -57z m67 -3 c0 -13 -6 -25 -12
-27 -9 -3 -13 6 -13 27 0 21 4 30 13 28 6 -3 12 -15 12 -28z m5 -100 c0 -20
-5 -30 -15 -30 -10 0 -15 10 -15 30 0 20 5 30 15 30 10 0 15 -10 15 -30z"/>
<path d="M1337 1153 c-7 -76 -16 -150 -19 -164 -2 -8 8 -15 21 -17 17 -3 22 0
18 11 -3 7 -2 20 3 27 11 18 42 4 38 -17 -2 -12 4 -19 20 -21 19 -3 23 0 18
15 -3 10 -8 41 -11 68 -19 160 -14 145 -50 145 -32 0 -33 -1 -38 -47z m46 -55
c4 -26 2 -38 -6 -38 -9 0 -11 13 -9 41 5 47 7 47 15 -3z"/>
<path d="M1460 1179 c-16 -29 -3 -74 31 -106 31 -30 39 -63 14 -63 -9 0 -15 9
-15 25 0 18 -5 25 -20 25 -16 0 -20 -7 -20 -30 0 -59 78 -78 102 -24 9 19 7
32 -8 64 -10 22 -24 40 -31 40 -14 0 -27 36 -18 50 9 15 25 2 25 -21 0 -12 7
-19 20 -19 22 0 27 28 10 61 -15 27 -75 26 -90 -2z"/>
<path d="M1575 1085 c0 -107 1 -116 19 -113 17 3 19 14 20 116 1 106 0 112
-19 112 -19 0 -20 -7 -20 -115z"/>
<path d="M1640 1084 l0 -115 43 3 c34 2 43 7 45 24 3 18 -1 21 -22 17 l-25 -5
2 96 c2 94 1 96 -20 96 -23 0 -23 -2 -23 -116z"/>
<path d="M1748 1143 c-2 -32 -1 -84 0 -115 3 -49 7 -58 23 -58 16 0 19 8 19
55 0 30 5 55 10 55 6 0 10 -16 10 -35 0 -36 28 -75 54 -75 22 0 53 33 60 63 6
24 4 27 -19 27 -20 0 -24 -5 -22 -22 1 -14 -4 -23 -15 -26 -16 -3 -17 5 -15
75 2 62 5 78 17 78 10 0 14 -8 13 -22 -2 -18 2 -23 22 -23 23 0 25 3 19 28
-10 39 -23 52 -55 52 -39 0 -59 -24 -59 -71 0 -24 -4 -38 -10 -34 -5 3 -10 28
-10 56 0 42 -3 49 -20 49 -16 0 -19 -8 -22 -57z"/>
<path d="M767 873 c-8 -8 -9 -63 -1 -63 3 0 13 7 21 16 14 13 14 17 2 25 -11
7 -10 9 4 9 10 0 15 5 12 10 -7 11 -28 13 -38 3z"/>
<path d="M832 868 c-30 -30 3 -77 40 -57 30 16 16 69 -17 69 -6 0 -16 -5 -23
-12z m38 -28 c0 -23 -25 -27 -33 -6 -7 16 1 26 20 26 7 0 13 -9 13 -20z"/>
<path d="M912 868 c-30 -30 3 -77 40 -57 30 16 16 69 -17 69 -6 0 -16 -5 -23
-12z m38 -28 c0 -11 -7 -20 -15 -20 -8 0 -15 9 -15 20 0 11 7 20 15 20 8 0 15
-9 15 -20z"/>
<path d="M987 873 c-10 -10 -8 -61 2 -67 15 -10 40 5 47 27 9 27 -30 59 -49
40z m33 -27 c0 -8 -4 -18 -10 -21 -5 -3 -10 3 -10 14 0 12 5 21 10 21 6 0 10
-6 10 -14z"/>
<path d="M1087 873 c-13 -12 -7 -61 7 -66 24 -10 41 20 28 48 -12 25 -23 31
-35 18z"/>
<path d="M1186 865 c-25 -25 8 -70 42 -58 20 8 14 20 -10 19 -30 -1 -30 28 0
32 12 2 20 8 17 13 -9 14 -32 11 -49 -6z"/>
<path d="M1317 874 c-4 -4 -7 -19 -8 -33 l-1 -26 -10 28 c-12 34 -26 35 -38 1
-6 -14 -10 -26 -10 -28 0 -8 76 -2 82 7 6 9 8 9 8 0 0 -7 5 -13 11 -13 17 0 6
64 -11 68 -9 1 -19 0 -23 -4z"/>
<path d="M1377 874 c-11 -11 -8 -64 3 -64 6 0 10 5 10 11 0 8 5 7 16 -2 14
-11 15 -9 12 22 -3 32 -24 49 -41 33z"/>
<path d="M1440 856 c5 -5 10 -18 10 -28 0 -10 5 -18 10 -18 6 0 10 8 10 18 0
10 5 23 10 28 7 7 1 11 -20 11 -21 0 -27 -4 -20 -11z"/>
<path d="M425 818 c11 -35 54 -107 103 -171 88 -116 251 -223 397 -262 33 -9
103 -18 155 -22 256 -15 508 104 654 311 45 63 86 137 86 156 0 28 -28 4 -54
-46 -72 -137 -191 -252 -331 -319 -111 -53 -184 -69 -315 -69 -134 0 -214 20
-345 87 -106 54 -234 180 -288 285 -22 41 -45 72 -53 72 -11 0 -14 -6 -9 -22z"/>
<path d="M500 831 c0 -5 23 -43 50 -85 86 -128 205 -221 352 -274 67 -24 86
-27 218 -27 132 0 151 3 218 27 149 54 270 149 354 277 51 79 56 91 34 91 -8
0 -29 -26 -46 -57 -18 -32 -65 -90 -105 -129 -121 -119 -285 -187 -455 -187
-170 0 -335 68 -455 187 -39 39 -86 97 -104 129 -18 31 -39 57 -47 57 -8 0
-14 -4 -14 -9z"/>
<path d="M1056 699 c-43 -51 -32 -115 24 -144 63 -32 130 12 130 87 0 83 -101
121 -154 57z m54 -14 c0 -8 -2 -15 -4 -15 -2 0 -6 7 -10 15 -3 8 -1 15 4 15 6
0 10 -7 10 -15z m40 6 c0 -6 -4 -13 -10 -16 -5 -3 -10 1 -10 9 0 9 5 16 10 16
6 0 10 -4 10 -9z m-68 -51 c-16 -26 -15 -40 3 -40 8 0 15 -4 15 -10 0 -5 9
-10 20 -10 11 0 20 4 20 9 0 5 10 11 23 14 l22 6 -24 -20 c-28 -23 -44 -24
-76 -3 -18 12 -25 25 -25 48 0 38 9 51 24 36 7 -7 7 -17 -2 -30z m107 -13 c1
-4 -8 -3 -20 3 -17 10 -18 14 -8 27 12 13 14 13 20 -4 4 -10 8 -22 8 -26z"/>
<path d="M787 664 c-4 -4 -7 -16 -7 -26 0 -14 6 -19 23 -16 14 2 22 10 22 23
0 20 -25 32 -38 19z"/>
<path d="M854 655 c-4 -9 -2 -21 4 -27 15 -15 44 -1 40 19 -4 23 -36 29 -44 8z"/>
<path d="M932 658 c-15 -18 1 -41 24 -36 23 4 26 41 3 46 -9 1 -21 -3 -27 -10z"/>
<path d="M1267 664 c-4 -4 -7 -16 -7 -26 0 -14 6 -19 23 -16 14 2 22 10 22 23
0 20 -25 32 -38 19z"/>
<path d="M1334 656 c-8 -21 3 -36 27 -36 15 0 20 6 17 22 -4 27 -35 37 -44 14z"/>
<path d="M1417 664 c-4 -4 -7 -16 -7 -26 0 -14 6 -19 23 -16 14 2 22 10 22 23
0 20 -25 32 -38 19z"/>
<path d="M1510 121 c-15 -29 -12 -77 6 -95 20 -20 63 -20 92 0 30 20 31 88 3
104 -33 17 -89 12 -101 -9z m33 -56 c-3 -9 -8 -14 -10 -11 -3 3 -2 9 2 15 9
16 15 13 8 -4z"/>
</g>
</svg>
